<?xml version="1.0" encoding="UTF-8" standalone="no"?>
<!-- Created with Inkscape (http://www.inkscape.org/) -->

<svg
   width="93.915443mm"
   height="105.93396mm"
   viewBox="0 0 93.915444 105.93396"
   version="1.1"
   id="svg9129"
   xml:space="preserve"
   sodipodi:docname="driving.svg"
   inkscape:version="1.2.2 (b0a84865, 2022-12-01)"
   xmlns:inkscape="http://www.inkscape.org/namespaces/inkscape"
   xmlns:sodipodi="http://sodipodi.sourceforge.net/DTD/sodipodi-0.dtd"
   xmlns="http://www.w3.org/2000/svg"
   xmlns:svg="http://www.w3.org/2000/svg"><sodipodi:namedview
     id="namedview9131"
     pagecolor="#ffffff"
     bordercolor="#000000"
     borderopacity="0.25"
     inkscape:showpageshadow="2"
     inkscape:pageopacity="0.0"
     inkscape:pagecheckerboard="0"
     inkscape:deskcolor="#d1d1d1"
     inkscape:document-units="mm"
     showgrid="false"
     inkscape:zoom="0.51313131"
     inkscape:cx="384.89173"
     inkscape:cy="487.20472"
     inkscape:window-width="1440"
     inkscape:window-height="796"
     inkscape:window-x="0"
     inkscape:window-y="25"
     inkscape:window-maximized="1"
     inkscape:current-layer="layer1" /><defs
     id="defs9126" /><g
     inkscape:label="Layer 1"
     inkscape:groupmode="layer"
     id="layer1"
     transform="translate(-3.301226,-19.80458)"><path
       style="fill:#2d6873;stroke-width:0.264583"
       d="m 21.761545,125.28329 c -0.190013,-0.98666 0.294671,-5.34928 0.823858,-7.41551 2.622779,-10.24074 10.636387,-18.26145 20.788557,-20.80696 5.44568,-1.36543 12.01896,-0.99896 17.06562,0.95144 10.71802,4.14222 17.90799,13.83615 18.45494,24.88201 l 0.14084,2.84427 h -1.45381 -1.4538 l -0.15266,-2.4474 C 75.01785,107.94466 61.0744,97.00833 45.85601,99.66771 c -9.18357,1.6048 -16.77157,8.11732 -19.843502,17.03098 -0.674975,1.95855 -1.291674,5.53316 -1.291674,7.48701 v 1.55284 h -1.435809 c -1.147735,0 -1.453398,-0.0913 -1.52348,-0.45525 z M 3.450787,113.53347 C 3.533047,112.31537 3.823063,109.89 4.095271,108.14375 6.92054,90.01926 20.265851,75.33357 38.47917,70.3064 c 1.23692,-0.34141 1.96871,-0.62948 1.62619,-0.64014 -0.98881,-0.0308 -3.9997,-1.74299 -6.27848,-3.57041 C 28.05146,61.46438 24.590615,54.51681 24.261091,46.892709 23.89464,38.414228 27.719524,30.290057 34.55341,25.0315 c 4.78383,-3.681069 12.13707,-5.745802 18.21326,-5.114139 10.79199,1.121903 19.41728,8.320116 22.65367,18.905557 0.67589,2.210656 0.72804,2.712959 0.72804,7.011458 0,4.290457 -0.0532,4.804937 -0.72461,7.011458 -1.56487,5.142537 -4.38799,9.598086 -8.07762,12.748396 -2.02009,1.72481 -4.62339,3.34667 -6.29335,3.92078 l -0.89625,0.30811 1.53058,0.33968 c 4.68256,1.0392 11.21326,4.06374 15.87997,7.35445 3.4206,2.41201 8.56035,7.46545 10.83237,10.65046 3.20749,4.49637 5.67458,9.54294 7.09983,14.52307 0.91483,3.19662 1.71737,8.16813 1.71737,10.63863 v 2.09039 H 96.3237 c -0.49113,0 -1.26504,0.0744 -1.71979,0.16536 -0.71984,0.14396 -0.82683,0.0922 -0.82683,-0.40046 0,-0.31121 0.14342,-0.79548 0.31871,-1.07616 0.61226,-0.98038 -0.59724,-8.1656 -2.09524,-12.44708 C 84.49737,80.21635 62.71668,68.03828 40.69881,72.9775 c -8.6116,1.93182 -15.978396,6.06974 -21.918114,12.31136 -6.573585,6.90771 -10.509444,14.91951 -11.909188,24.24221 -0.223808,1.49063 -0.406924,3.42539 -0.406924,4.29948 0,1.57408 -0.0073,1.58925 -0.760677,1.58925 -0.418373,0 -1.130128,0.0739 -1.581679,0.1642 l -0.821002,0.16419 z M 41.9849,69.47165 c -0.1819,-0.0734 -0.47956,-0.0734 -0.66146,0 -0.1819,0.0734 -0.0331,0.13345 0.33073,0.13345 0.3638,0 0.51263,-0.0601 0.33073,-0.13345 z m 17.4625,0 c -0.1819,-0.0734 -0.47956,-0.0734 -0.66146,0 -0.1819,0.0734 -0.0331,0.13345 0.33073,0.13345 0.3638,0 0.51263,-0.0601 0.33073,-0.13345 z M 43.83698,69.20706 c -0.1819,-0.0734 -0.47956,-0.0734 -0.66146,0 -0.1819,0.0734 -0.0331,0.13346 0.33073,0.13346 0.3638,0 0.51263,-0.0601 0.33073,-0.13346 z m 13.75833,0 c -0.1819,-0.0734 -0.47956,-0.0734 -0.66146,0 -0.1819,0.0734 -0.0331,0.13346 0.33073,0.13346 0.3638,0 0.51263,-0.0601 0.33073,-0.13346 z M 45.68906,68.94248 c -0.1819,-0.0734 -0.47955,-0.0734 -0.66146,0 -0.1819,0.0734 -0.0331,0.13345 0.33073,0.13345 0.36381,0 0.51263,-0.0601 0.33073,-0.13345 z m 10.05417,0 c -0.1819,-0.0734 -0.47956,-0.0734 -0.66146,0 -0.1819,0.0734 -0.0331,0.13345 0.33073,0.13345 0.3638,0 0.51263,-0.0601 0.33073,-0.13345 z m 1.52135,-1.12622 C 64.65649,65.33182 69.72589,60.29211 72.2255,52.942968 75.92411,42.068616 70.57339,29.94635 59.86902,24.948862 c -2.99881,-1.400033 -4.86059,-1.858787 -8.29298,-2.043431 -7.17088,-0.385754 -13.37411,2.12964 -18.30906,7.424276 -10.921216,11.7172 -6.500041,30.955943 8.4897,36.942953 3.20576,1.2804 5.07581,1.5777 9.2902,1.47695 3.33147,-0.0796 3.95706,-0.17354 6.2177,-0.93335 z"
       id="path9176" /></g></svg>
