<?xml version="1.0" encoding="UTF-8" standalone="no"?>
<!-- Created with Inkscape (http://www.inkscape.org/) -->

<svg
   width="114.15295mm"
   height="121.95562mm"
   viewBox="0 0 114.15294 121.95562"
   version="1.1"
   id="svg7133"
   xml:space="preserve"
   inkscape:version="1.2.2 (b0a84865, 2022-12-01)"
   sodipodi:docname="driving.svg"
   xmlns:inkscape="http://www.inkscape.org/namespaces/inkscape"
   xmlns:sodipodi="http://sodipodi.sourceforge.net/DTD/sodipodi-0.dtd"
   xmlns="http://www.w3.org/2000/svg"
   xmlns:svg="http://www.w3.org/2000/svg"><sodipodi:namedview
     id="namedview7135"
     pagecolor="#ffffff"
     bordercolor="#000000"
     borderopacity="0.25"
     inkscape:showpageshadow="2"
     inkscape:pageopacity="0.0"
     inkscape:pagecheckerboard="0"
     inkscape:deskcolor="#d1d1d1"
     inkscape:document-units="mm"
     showgrid="false"
     inkscape:zoom="1.2043496"
     inkscape:cx="222.52675"
     inkscape:cy="225.01772"
     inkscape:window-width="1440"
     inkscape:window-height="796"
     inkscape:window-x="0"
     inkscape:window-y="25"
     inkscape:window-maximized="1"
     inkscape:current-layer="layer1" /><defs
     id="defs7130" /><g
     inkscape:label="Layer 1"
     inkscape:groupmode="layer"
     id="layer1"
     transform="translate(-44.689564,-88.702275)"><path
       style="fill:#2d6873;stroke-width:2;stroke-dasharray:none"
       d="m 152.85835,210.4627 c -0.0721,-0.20857 -0.1763,-0.79594 -0.23161,-1.30526 -0.14573,-1.34215 -0.43572,-1.85209 -1.05326,-1.85209 -0.29972,0 -0.47275,0.0722 -0.3845,0.16046 0.23209,0.23209 -0.59756,1.01459 -1.5826,1.49267 -0.72601,0.35236 -0.89347,0.35828 -1.15688,0.0409 -0.24047,-0.28975 -0.22287,-0.37111 0.0803,-0.37111 0.56606,0 1.32614,-0.9408 1.21321,-1.50167 -0.0763,-0.37871 -0.29483,-0.46292 -1.01461,-0.39088 -0.50458,0.0505 -1.1183,0.19934 -1.36381,0.33073 -0.24552,0.1314 -0.74847,0.2389 -1.11768,0.2389 -0.53168,0 -0.71646,-0.1743 -0.88847,-0.8381 -0.28281,-1.09144 -0.93747,-1.52038 -1.64553,-1.0782 -0.28957,0.18084 -0.80731,0.3288 -1.15053,0.3288 -0.69109,0 -1.34123,0.61108 -1.61863,1.52136 -0.0998,0.32742 -0.39392,0.59531 -0.65364,0.59531 -0.37373,0 -0.54166,-0.37251 -0.80511,-1.78594 -0.62533,-3.35499 -0.62522,-3.58728 0.002,-4.25576 l 0.57963,-0.61773 -0.98988,-2.16039 c -0.54443,-1.18821 -1.21331,-2.64446 -1.4864,-3.23611 -0.2732,-0.59165 -0.49665,-1.61069 -0.49665,-2.26453 0,-0.65385 -0.1748,-1.41993 -0.38846,-1.70241 -0.21365,-0.28247 -0.39224,-0.72669 -0.39687,-0.98715 -0.0105,-0.58841 -1.00229,-2.56914 -1.28648,-2.56914 -0.47243,0 -1.92718,-1.72887 -2.58347,-3.07027 -0.41438,-0.84696 -1.1497,-1.78457 -1.79379,-2.28725 -0.60035,-0.46855 -1.60802,-1.33002 -2.23925,-1.91438 -2.10907,-1.95245 -5.61425,-3.66678 -6.2327,-3.04833 -0.41893,0.41893 -0.9037,0.31211 -1.07816,-0.23758 -0.22138,-0.69748 -1.58324,-1.28584 -3.36826,-1.45518 -1.30294,-0.1236 -1.52453,-0.0773 -1.65903,0.34643 -0.13573,0.42765 -0.48109,0.4947 -2.74915,0.53378 -2.227,0.0384 -2.68442,-0.0289 -3.23363,-0.47552 -0.63865,-0.51935 -0.64101,-0.51922 -1.43345,0.0805 -0.43656,0.33037 -1.38906,0.73775 -2.11667,0.90529 -3.98612,0.91786 -4.92942,1.19672 -7.377085,2.18086 -1.472397,0.59201 -3.212865,1.39841 -3.867709,1.792 -0.654844,0.39359 -2.46257,1.33762 -4.017171,2.09785 -3.101152,1.51651 -4.303596,2.55277 -6.021168,5.189 -1.646234,2.52674 -3.148986,7.41991 -3.608104,11.7485 -0.205467,1.93716 -0.359846,3.90169 -0.343064,4.36562 0.113612,3.14045 -1.148246,4.4801 -2.034378,2.15979 -0.364837,-0.95531 -0.426376,-1.69049 -0.304522,-3.63802 0.08399,-1.34242 0.271774,-3.03608 0.417292,-3.76368 0.145519,-0.7276 0.394716,-2.21589 0.553771,-3.30729 0.446725,-3.06538 1.926883,-6.84337 3.913409,-9.9887 0.482751,-0.76436 0.956477,-1.59495 1.052724,-1.84576 0.421508,-1.09844 4.41457,-4.60581 6.380951,-5.60482 2.091457,-1.06255 9.730594,-3.40325 12.080054,-3.70143 1.30969,-0.16622 3.34708,-0.43518 4.52755,-0.59768 1.95475,-0.2691 2.35616,-0.24078 4.49792,0.31727 1.71295,0.44633 3.14204,0.61996 5.26203,0.63933 1.69457,0.0155 3.14309,0.15703 3.46738,0.33881 0.30633,0.17171 1.53339,0.66857 2.72681,1.10411 2.40173,0.87652 7.12022,3.75105 8.38152,5.10607 0.8892,0.95527 2.48991,3.41182 2.48991,3.82118 0,0.14172 0.22547,0.49968 0.50104,0.79547 0.27557,0.29579 0.69591,0.88379 0.93409,1.30666 1.01974,1.81051 1.38659,2.32077 1.92604,2.67894 0.54079,0.35907 0.58521,0.32984 0.82646,-0.54392 0.14023,-0.50786 0.79752,-1.7621 1.46065,-2.78719 1.93574,-2.99235 2.02454,-3.22387 1.73341,-4.51957 -0.23462,-1.04423 -1.44403,-3.4521 -1.7339,-3.4521 -0.0675,0 -0.0389,0.14882 0.0635,0.33072 0.10247,0.18191 -0.24391,-0.086 -0.76973,-0.59531 -0.52582,-0.50932 -0.95604,-1.10463 -0.95603,-1.32291 1e-5,-0.35278 0.0358,-0.35278 0.32233,0 0.17727,0.21828 0.64895,0.5654 1.04817,0.77137 0.39922,0.20598 0.90798,0.65246 1.13058,0.99219 0.45679,0.69715 0.97786,0.79073 1.42215,0.2554 0.23141,-0.27883 0.1207,-0.725 -0.48057,-1.93689 -0.63734,-1.28456 -0.98446,-1.66624 -1.88449,-2.07209 -0.60679,-0.27362 -1.2866,-0.77733 -1.5107,-1.11935 -0.59528,-0.90851 -1.65148,-1.35836 -3.06187,-1.30408 -1.07954,0.0415 -1.32199,-0.0517 -1.84716,-0.7103 -0.34265,-0.42971 -0.91579,-0.79228 -1.32308,-0.83699 -0.39522,-0.0434 -1.1039,-0.39208 -1.57485,-0.77487 -1.69426,-1.37711 -3.38076,-2.52481 -3.71012,-2.52481 -0.18464,0 -0.62887,-0.20534 -0.98718,-0.45631 -0.35831,-0.25097 -0.89958,-0.42379 -1.20281,-0.38406 -0.33984,0.0445 -0.74559,-0.18641 -1.0577,-0.60202 -0.60843,-0.81019 -1.53901,-0.87265 -2.16195,-0.14511 -0.2492,0.29104 -0.64093,0.52917 -0.87053,0.52917 -0.2296,0 -0.54659,0.12914 -0.70443,0.28698 -0.56386,0.56386 -1.49421,0.16095 -1.72865,-0.74863 -0.12171,-0.47219 -0.5164,-1.05188 -0.8771,-1.28822 -0.55464,-0.36341 -0.77958,-0.37844 -1.45811,-0.0974 -0.44126,0.18278 -0.921,0.55412 -1.06608,0.8252 -0.41536,0.77611 -1.46369,0.61896 -2.00704,-0.30087 -0.53352,-0.90318 -0.78235,-0.96772 -1.43919,-0.37329 -0.26388,0.23881 -1.04225,0.45159 -1.80161,0.49249 -0.73536,0.0396 -1.48816,0.1889 -1.6729,0.33174 -0.18473,0.14284 -0.92721,0.28522 -1.64995,0.31641 -1.42578,0.0615 -1.99322,0.36684 -1.99322,1.07242 0,0.54928 -0.79387,0.99075 -2.38125,1.32424 -4.939472,1.03769 -5.829403,1.30593 -7.297155,2.19951 -0.861515,0.5245 -2.221238,1.15934 -3.021602,1.41076 -0.913966,0.28711 -1.804715,0.80986 -2.394905,1.40549 -3.19043,3.21982 -5.542595,4.97794 -5.542595,4.14281 0,-0.58785 4.033478,-4.31263 5.120913,-4.72899 0.303979,-0.11639 0.615582,-0.30331 0.692451,-0.41538 0.460814,-0.67185 3.961685,-2.76559 5.060796,-3.02667 0.713171,-0.16941 1.296673,-0.38502 1.296673,-0.47913 0,-0.39886 -1.215631,-0.4391 -2.221537,-0.0735 -0.597164,0.21701 -1.959306,0.68885 -3.026981,1.04853 -2.29538,0.77326 -4.391313,1.88531 -6.387272,3.38891 -0.797131,0.60051 -1.766704,1.29071 -2.154602,1.5338 -1.70616,1.06921 -5.188966,5.17339 -5.963785,7.02779 -0.219543,0.52544 -0.846611,1.50048 -1.393483,2.16675 -1.238322,1.50869 -2.374839,3.41808 -3.162102,5.31244 -0.466529,1.1226 -0.655425,2.27162 -0.826444,5.02708 -0.121925,1.96454 -0.137684,4.04813 -0.03501,4.63021 0.111641,0.63296 0.03902,1.74958 -0.180676,2.77813 -0.202041,0.94588 -0.418788,1.99541 -0.481658,2.33228 -0.08475,0.45408 -0.264152,0.59094 -0.69365,0.52917 -0.998538,-0.14362 -1.245957,-1.12902 -1.249921,-4.97812 -0.0069,-6.66783 0.767625,-11.44718 2.137159,-13.18826 0.277505,-0.35279 0.504552,-0.72615 0.504552,-0.8297 0,-0.10355 0.597133,-1.18882 1.326965,-2.41172 0.729829,-1.22289 1.450956,-2.67795 1.602499,-3.23347 0.152691,-0.55971 0.317108,-4.69497 0.368776,-9.27511 0.09699,-8.59736 0.30285,-10.48455 1.143728,-10.48478 0.417533,-1.2e-4 0.452823,0.63219 0.452823,8.11352 0,5.6912 0.08735,8.14287 0.292577,8.21154 0.160914,0.0538 1.172945,-0.74751 2.248958,-1.78078 3.115153,-2.99143 6.643541,-5.51857 9.310062,-6.66818 1.31355,-0.5663 2.887012,-1.37278 3.496582,-1.79217 0.609569,-0.4194 2.346693,-1.23249 3.860271,-1.80689 2.515481,-0.9546 3.218061,-1.09271 8.175923,-1.60711 6.09538,-0.63243 7.59627,-0.67113 10.83418,-0.27938 1.24449,0.15057 3.1919,0.38516 4.32759,0.52132 1.40216,0.1681 2.54857,0.49832 3.57188,1.02888 0.82883,0.42974 2.6976,1.16424 4.15281,1.63223 1.45521,0.468 3.50565,1.25102 4.55653,1.74006 1.05089,0.48904 1.97599,0.88917 2.05578,0.88917 0.0798,0 0.64873,0.31841 1.2643,0.70759 0.61557,0.38917 2.09075,1.20787 3.27817,1.81933 1.18742,0.61146 2.66992,1.60273 3.29444,2.20283 0.62452,0.60009 1.22889,1.09108 1.34303,1.09108 0.11414,0 0.48865,0.44649 0.83225,0.99219 0.3436,0.5457 1.08943,1.73529 1.6574,2.64352 1.09222,1.74653 1.8338,2.11352 2.10305,1.04072 0.44189,-1.76063 0.0108,-9.85201 -0.55969,-10.50417 -0.19426,-0.22209 -0.42714,-0.93646 -0.51752,-1.5875 -0.27652,-1.99197 -0.87992,-4.59696 -1.2948,-5.5899 -0.39107,-0.93597 -0.9609,-4.55508 -1.07672,-6.83861 -0.0332,-0.65484 -0.15262,-1.52983 -0.26534,-1.94442 -0.17545,-0.64532 -0.13475,-0.74027 0.28282,-0.65986 0.50938,0.0981 0.52728,0.15998 1.69545,5.86162 0.53841,2.6279 0.89686,3.62183 1.30616,3.62183 0.40714,0 0.44464,-1.41795 0.10852,-4.10316 -0.77307,-6.17585 -1.63463,-8.14308 -4.39639,-10.03843 -1.28744,-0.88355 -1.74744,-1.05206 -2.89686,-1.06115 -1.29903,-0.0103 -1.37798,0.029 -1.60152,0.79632 -0.12932,0.44391 -0.48969,0.92016 -0.80081,1.05833 -0.31112,0.13817 -0.83442,0.66793 -1.1629,1.17726 -0.32848,0.50932 -0.70706,1.05774 -0.84129,1.21872 -0.13423,0.16098 -1.0337,1.91573 -1.99881,3.89944 -1.68902,3.47164 -3.15707,5.46517 -4.02459,5.46517 -0.65568,0 -0.30306,-0.99227 1.41034,-3.96875 1.84867,-3.21147 3.26045,-5.78719 3.26045,-5.94853 0,-0.10312 0.2216,-0.50353 0.49244,-0.88979 0.27085,-0.38627 0.64026,-1.15787 0.82093,-1.71466 0.3023,-0.93165 0.28002,-1.06394 -0.27942,-1.65944 -0.33435,-0.3559 -0.97166,-0.74283 -1.41624,-0.85985 -1.4935,-0.39309 -2.4548,0.0572 -4.43564,2.07769 -1.65555,1.6887 -1.86989,2.02485 -1.93832,3.03981 -0.0895,1.3281 -0.34611,1.87757 -1.2882,2.75876 -0.76822,0.71857 -1.15902,0.6109 -0.66337,-0.18276 0.18161,-0.29081 0.23966,-0.73935 0.13173,-1.01795 -0.18674,-0.48205 -0.20545,-0.48104 -0.58157,0.0311 -0.21375,0.29105 -0.62781,0.80469 -0.92015,1.14144 -0.29233,0.33675 -0.65156,0.92803 -0.79829,1.31396 -0.21471,0.56472 -0.31466,0.62596 -0.51212,0.31377 -0.20518,-0.32443 -0.246,-0.31214 -0.24939,0.0751 -0.002,0.25466 -0.12311,0.46302 -0.26863,0.46302 -0.14553,0 -0.26459,0.17156 -0.26459,0.38126 0,0.40752 -0.47714,0.81729 -0.69638,0.59805 -0.30983,-0.30983 2.829,-5.78216 3.75524,-6.54703 0.2567,-0.21198 0.69103,-0.89133 0.96518,-1.50968 0.27415,-0.61835 0.96493,-1.82656 1.53506,-2.6849 1.02852,-1.54847 1.04873,-1.56205 2.59231,-1.7412 0.85565,-0.0993 1.79625,-0.31985 2.09024,-0.49009 2.00186,-1.15927 2.79916,-1.50016 3.50867,-1.50016 0.45666,0 2.06917,0.64247 3.71547,1.48036 2.21272,1.12617 3.276,1.51368 4.44395,1.61959 0.84442,0.0766 1.71875,0.2736 1.94296,0.43786 0.60255,0.44143 1.19413,1.72747 1.41532,3.07677 0.10735,0.65484 0.41515,1.78594 0.684,2.51354 1.42931,3.86823 2.44872,11.82797 2.74472,21.43125 0.0852,2.7649 0.22532,6.08063 0.31134,7.36829 0.17561,2.62886 -0.1294,2.28319 3.0412,3.44662 0.67393,0.2473 1.72347,0.9512 2.33231,1.56424 1.5435,1.55413 3.79463,6.38771 3.47646,7.4646 -0.043,0.14552 -0.10745,1.6338 -0.14324,3.30729 -0.0971,4.53986 -1.10985,6.94395 -3.64997,8.66426 -0.86745,0.58748 -1.10945,0.90869 -1.05957,1.40637 0.25462,2.54069 0.14115,3.73179 -0.4078,4.28074 -0.44676,0.44676 -0.5892,0.48437 -0.69334,0.18306 z m -3.32913,-6.88229 c 1.41326,-0.63899 2.79,-1.90246 3.34704,-3.07167 0.29681,-0.62301 0.36387,-1.34921 0.25652,-2.77813 -0.0799,-1.06405 -0.215,-3.30385 -0.30017,-4.97734 -0.16816,-3.30439 -0.48683,-4.31253 -1.81908,-5.75469 -0.85639,-0.92703 -1.74648,-1.10353 -2.28611,-0.45331 -0.27784,0.33477 -0.21755,0.76702 0.34136,2.44739 0.37333,1.12245 0.76156,2.5766 0.86273,3.23144 0.10117,0.65485 0.35892,1.88439 0.57279,2.73231 0.58099,2.30347 0.0751,3.10746 -0.86129,1.36874 -0.27429,-0.50933 -0.57418,-0.92605 -0.66643,-0.92605 -0.0923,0 -0.11083,-0.29765 -0.0413,-0.66145 0.0927,-0.48492 0.0123,-0.66146 -0.30128,-0.66146 -0.24063,0 -0.42772,0.2153 -0.42772,0.49224 0,0.27073 -0.0653,1.01487 -0.14505,1.65364 -0.1282,1.0264 -0.0513,1.26554 0.66145,2.05716 1.11401,1.23726 1.05871,2.69477 -0.0856,2.25566 -0.53869,-0.20671 -0.76838,-0.93247 -1.06573,-3.36748 -0.0678,-0.5554 -0.23747,-1.15071 -0.37699,-1.32292 -0.13952,-0.1722 -0.39539,-1.02747 -0.56859,-1.90059 -0.45725,-2.30494 -1.30099,-4.51078 -1.96343,-5.13311 l -0.57681,-0.54188 -1.37922,1.28136 c -0.75857,0.70474 -1.37996,1.50537 -1.38085,1.77916 -8e-4,0.27379 -0.17949,0.83883 -0.39688,1.25565 -0.82221,1.57651 -0.34484,6.46066 0.80262,8.2119 0.62353,0.95162 3.02588,2.47536 4.3837,2.78044 0.59082,0.13275 1.14433,0.31147 1.23001,0.39715 0.27915,0.27915 0.97136,0.15424 2.18426,-0.39416 z m -0.7418,-11.06837 c -0.21393,-0.14009 -0.4994,-1.07219 -0.65542,-2.14002 -0.0761,-0.52077 -0.93367,-1.72605 -1.10571,-1.55401 -0.0736,0.0736 -0.0168,0.5419 0.1262,1.04062 0.14304,0.49873 0.26006,1.25537 0.26006,1.68144 0,1.01996 0.72905,1.86086 1.24332,1.43406 0.20307,-0.16854 0.26228,-0.37648 0.13155,-0.46209 z m 6.73786,-2.99991 c -0.0734,-0.18191 -0.13345,-0.0331 -0.13345,0.33072 0,0.36381 0.0601,0.51264 0.13345,0.33073 0.0734,-0.1819 0.0734,-0.47955 0,-0.66145 z m -8.64189,-2.00643 c 0,-0.34451 -0.31453,-0.57362 -0.57039,-0.4155 -0.27364,0.16912 -0.0377,0.63599 0.32142,0.63599 0.13693,0 0.24897,-0.0992 0.24897,-0.22049 z m 1.32291,-2.95451 c 0,-0.14552 -0.11906,-0.26458 -0.26458,-0.26458 -0.14552,0 -0.26458,-0.24805 -0.26458,-0.55122 0,-0.79914 -0.64462,-0.47632 -0.74518,0.37318 -0.0716,0.60459 0.0148,0.7072 0.59531,0.7072 0.37347,0 0.67903,-0.11906 0.67903,-0.26458 z m -1.73109,-20.61922 c 0.0837,-0.13546 0.0312,-0.32109 -0.11667,-0.41249 -0.1479,-0.0914 -0.2689,0.0194 -0.2689,0.2463 0,0.46475 0.15876,0.53318 0.38557,0.16619 z m -46.24977,41.56661 c -0.240845,-0.26612 -0.438455,-0.59354 -0.439155,-0.7276 -0.002,-0.34762 -1.558549,-1.93773 -2.945559,-3.00868 -0.650232,-0.50207 -1.368448,-1.34886 -1.59603,-1.88177 -0.281567,-0.65931 -1.037994,-1.43209 -2.367237,-2.41842 -2.875809,-2.1339 -4.731573,-4.10216 -4.731573,-5.0184 0,-1.17375 0.148506,-1.10434 2.926792,1.36789 2.249077,2.00133 5.984904,5.67001 7.611279,7.47448 0.622998,0.69123 1.355043,1.25677 1.626743,1.25677 0.63444,0 2.64791,-2.33784 2.65015,-3.07709 0.001,-0.34412 -0.79672,-1.39577 -2.04881,-2.70085 -1.127795,-1.17552 -2.489923,-2.61856 -3.026961,-3.20676 -0.537038,-0.58821 -1.162116,-1.06946 -1.389062,-1.06946 -0.226947,0 -0.412631,-0.16586 -0.412631,-0.36857 0,-0.20271 -0.178594,-0.4371 -0.396875,-0.52086 -0.412052,-0.15812 -0.556001,-0.69807 -0.186105,-0.69807 0.61155,0 4.373539,3.5217 4.092299,3.83092 -0.11111,0.12218 2.7e-4,0.1497 0.24752,0.0612 0.319465,-0.1144 0.406975,-0.05 0.302425,0.22243 -0.0998,0.26005 0.0322,0.38339 0.41035,0.38339 0.30661,0 0.55747,0.10716 0.55747,0.23813 0,0.13097 0.41672,0.65484 0.92605,1.16417 0.50932,0.50932 0.92604,1.06403 0.92604,1.2327 0,0.16866 0.11885,0.2332 0.26412,0.14342 0.14526,-0.0898 0.52894,0.0223 0.85262,0.24897 0.99881,0.69959 2.76238,0.52488 4.23402,-0.41947 1.28569,-0.82503 1.3159,-0.83028 3.78198,-0.65693 l 2.48593,0.17475 1.24999,-1.24999 c 1.33886,-1.33886 1.78764,-1.229 0.90352,0.22118 -0.29757,0.4881 -0.54149,0.97783 -0.54203,1.0883 -0.002,0.30577 1.47432,1.78352 1.7812,1.78352 0.14833,0 0.4083,0.16702 0.57771,0.37115 0.54508,0.65679 -0.266,0.65635 -2.03698,-0.001 -0.9977,-0.37038 -2.58322,-0.68388 -3.96875,-0.78471 -2.26596,-0.16492 -2.32862,-0.15331 -3.49792,0.64772 -0.65484,0.44861 -1.35122,0.81782 -1.54751,0.82046 -0.19629,0.003 -0.73207,0.17295 -1.19063,0.37844 -0.45855,0.20549 -1.25885,0.445 -1.77844,0.53225 -0.89942,0.15098 -2.098,1.29005 -2.098,1.99379 0,0.15141 -0.1096,0.2753 -0.24356,0.2753 -0.13396,0 -0.3263,0.38695 -0.42743,0.85989 -0.18879,0.88292 -0.56979,1.52136 -0.9079,1.52136 -0.10515,0 -0.38823,-0.21774 -0.62906,-0.48386 z m 19.72249,-3.15726 c -1.08727,-0.93048 -1.25082,-2.00688 -0.32496,-2.13869 0.35922,-0.0511 1.0736,-0.51082 1.5875,-1.02151 0.51391,-0.51069 1.3511,-1.10378 1.86042,-1.31799 0.50932,-0.2142 1.30692,-0.79671 1.77245,-1.29445 0.94489,-1.0103 1.20008,-1.12803 0.95794,-0.44197 -0.23652,0.67018 -1.17758,1.65364 -1.58234,1.65364 -0.19096,0 -0.51445,0.38696 -0.71887,0.8599 -0.20442,0.47294 -0.86307,1.39335 -1.46366,2.04535 -0.6006,0.65201 -1.04128,1.31765 -0.97928,1.4792 0.062,0.16156 0.0283,0.43039 -0.0749,0.59739 -0.12766,0.20656 -0.45834,0.072 -1.03426,-0.42087 z m -46.883292,-3.09014 c 0,-0.35521 0.119062,-0.71943 0.264583,-0.80937 0.154363,-0.0954 0.264583,0.17364 0.264583,0.64585 0,0.44515 -0.119062,0.80936 -0.264583,0.80936 -0.145521,0 -0.264583,-0.29063 -0.264583,-0.64584 z m 26.083707,-1.11137 c -0.13935,-0.36314 -0.10063,-0.37951 0.23628,-0.0999 0.45911,0.38104 0.5069,0.53419 0.16665,0.53419 -0.12995,0 -0.31127,-0.19543 -0.40293,-0.43429 z m -1.72894,-1.72926 c -0.295175,-0.31683 -0.490001,-0.62274 -0.432949,-0.67979 0.191485,-0.19149 1.213596,0.58556 1.213596,0.92262 0,0.46919 -0.165161,0.41782 -0.780647,-0.24283 z m 30.738415,-2.75073 c 0.2512,-0.26299 0.52928,-0.40561 0.61797,-0.31692 0.0887,0.0887 -0.11684,0.30387 -0.45672,0.47817 -0.59078,0.30298 -0.59787,0.29589 -0.16125,-0.16125 z m -34.117943,-1.4299 c -0.229484,-0.58421 -0.650833,-1.12786 -0.946981,-1.22185 -0.71061,-0.22554 -4.417843,-3.80041 -4.417843,-4.26011 0,-0.19871 0.208359,-0.43817 0.463021,-0.53213 0.254661,-0.094 0.526058,-0.26312 0.603104,-0.37592 0.231434,-0.33881 1.413224,0.39453 1.769031,1.09774 0.182623,0.36094 0.337418,0.53718 0.34399,0.39166 0.0066,-0.14552 0.151543,-0.0265 0.322159,0.26459 0.170617,0.29104 0.277241,0.85512 0.23694,1.25351 -0.05659,0.55942 0.08204,0.79512 0.608899,1.03517 0.845018,0.38501 1.220679,0.0882 0.528748,-0.4177 -0.280188,-0.20488 -0.437192,-0.44475 -0.348895,-0.53305 0.0883,-0.0883 0.445296,0.0781 0.793334,0.36987 0.502812,0.42145 0.558946,0.57913 0.273278,0.76763 -0.260676,0.17199 -0.308838,0.53718 -0.175183,1.32829 0.101385,0.60009 0.280196,1.09107 0.397356,1.09107 0.11716,0 0.281551,0.17859 0.365316,0.39687 0.08376,0.21828 0.02739,0.39688 -0.12527,0.39688 -0.152659,0 -0.463611,-0.47364 -0.691004,-1.05252 z M 81.26672,181.89705 c 0,-0.2866 0.178499,-0.52086 0.396875,-0.52086 0.218281,0 0.396875,0.16586 0.396875,0.36857 0,0.20271 -0.178594,0.4371 -0.396875,0.52086 -0.269951,0.10359 -0.396875,-0.0143 -0.396875,-0.36857 z m 1.066747,-0.60015 c -0.01849,-0.46467 0.819105,-1.77149 1.12286,-1.75191 0.24828,0.016 0.246692,0.0521 -0.0068,0.15434 -0.181901,0.0734 -0.330729,0.27937 -0.330729,0.45771 0,0.35823 -0.771866,1.47854 -0.785336,1.13986 z m -7.152163,-21.06574 c 0,-0.27914 -0.08182,-0.72562 -0.18183,-0.99218 -0.160062,-0.42665 -0.128389,-0.44119 0.264584,-0.12154 0.48025,0.39065 0.618267,1.62125 0.181829,1.62125 -0.14552,0 -0.264583,-0.22839 -0.264583,-0.50753 z m 1.206169,0.21779 c 0.09849,-0.15935 -0.05634,-0.60814 -0.344059,-0.9973 -0.287721,-0.38917 -0.607422,-0.97316 -0.710448,-1.29777 -0.103026,-0.3246 -0.292629,-0.59019 -0.421338,-0.59019 -0.36222,0 -2.111574,-1.88992 -2.111574,-2.28124 0,-0.19753 -0.168235,-0.28343 -0.389096,-0.19868 -0.214003,0.0821 -0.697852,-0.0935 -1.075219,-0.39039 -0.37737,-0.29684 -0.85712,-0.47409 -1.066112,-0.39389 -0.233116,0.0894 -0.379989,-0.0185 -0.379989,-0.27937 0,-0.50305 -0.426255,-0.56784 -0.621427,-0.0944 -0.08955,0.2172 -0.371755,0.0583 -0.822113,-0.46302 -0.377166,-0.43656 -1.020472,-1.15094 -1.429568,-1.5875 -0.952225,-1.01616 -1.624809,-2.11444 -1.624809,-2.65318 0,-0.23256 -0.310739,-1.09996 -0.690533,-1.92754 -0.994738,-2.16757 -1.081352,-2.30553 -1.401511,-2.2323 -0.159062,0.0364 -0.289205,-0.17901 -0.289205,-0.47864 0,-0.34857 -0.11149,-0.47588 -0.309547,-0.35347 -0.204287,0.12626 -0.255448,0.0503 -0.150454,-0.22328 0.0875,-0.22802 -0.01133,-0.98085 -0.21962,-1.67295 -0.208292,-0.6921 -0.378713,-2.00961 -0.378713,-2.92781 0,-1.37524 0.06994,-1.6426 0.396875,-1.51714 0.436219,0.1674 0.541661,-0.55232 0.2057,-1.40403 -0.158611,-0.4021 -0.220883,-0.34945 -0.365571,0.30909 -0.106258,0.48362 -0.186626,-0.15508 -0.205699,-1.63475 -0.02369,-1.83785 0.06522,-2.52502 0.36557,-2.82537 0.267602,-0.2676 0.390319,-0.89858 0.376746,-1.93713 l -0.02013,-1.54025 -0.356617,0.92604 c -0.344557,0.89473 -0.357297,0.84887 -0.376746,-1.35599 -0.02172,-2.46284 0.186353,-4.00281 0.513528,-3.80061 0.394674,0.24392 0.552307,-0.79951 0.373303,-2.47103 -0.117166,-1.09409 -0.2604,-1.56133 -0.407475,-1.32924 -0.145432,0.22951 -0.226798,-0.0692 -0.226798,-0.83271 0,-0.75108 0.08263,-1.06028 0.223824,-0.83753 0.332794,0.525 0.553906,-0.53809 0.558211,-2.68382 0.0026,-1.29781 -0.08202,-1.74862 -0.30265,-1.61227 -0.219458,0.13563 -0.246035,0.009 -0.09377,-0.44741 0.116871,-0.35017 0.265073,-1.38588 0.329335,-2.30156 0.121036,-1.72465 -0.2094,-2.58837 -0.890283,-2.32709 -0.411897,0.15806 -1.94944,-0.33705 -1.94944,-0.62775 0,-0.11128 -0.367676,-0.66498 -0.817058,-1.23045 -0.688766,-0.8667 -0.792524,-1.18157 -0.660804,-2.0053 0.128225,-0.80187 0.05526,-1.0479 -0.406763,-1.37151 -0.421776,-0.29543 -0.521259,-0.56074 -0.396558,-1.05758 0.09359,-0.37291 0.04083,-0.74087 -0.120534,-0.8406 -0.158037,-0.0977 -0.214455,-0.46639 -0.125558,-0.82058 0.210935,-0.84043 -0.117916,-3.299435 -0.416559,-3.114863 -0.455904,0.281765 -0.23877,-3.682498 0.262088,-4.784998 0.580285,-1.277336 2.457438,-3.511182 3.534071,-4.205608 1.149812,-0.741625 4.56183,-1.218024 6.753051,-0.942885 1.47229,0.184868 2.481942,0.574338 5.426921,2.093418 1.989961,1.026462 3.785669,1.866295 3.990459,1.866295 0.59191,0 2.402964,2.137805 3.147475,3.715345 1.806549,3.827876 1.932443,6.392456 0.480018,9.778396 -1.745427,4.06901 -2.260439,8.13048 -1.945912,15.34585 0.117353,2.69213 0.186425,5.31151 0.15349,5.82083 -0.145217,2.24577 -0.03588,3.7795 0.307697,4.31607 0.203811,0.31829 0.503044,1.08152 0.664961,1.69605 0.382908,1.45328 1.753436,3.74376 2.711204,4.53107 0.531119,0.43659 1.324009,0.69815 2.666963,0.87979 1.051126,0.14217 2.343885,0.38312 2.872798,0.53545 1.100079,0.31682 3.668548,-0.19216 3.668548,-0.72697 0,-0.35191 1.242607,-0.19837 1.478081,0.18263 0.08104,0.13113 -0.158845,0.6023 -0.533077,1.04704 -0.374232,0.44475 -0.680421,1.03763 -0.680421,1.3175 0,0.53555 -0.747956,0.70328 -1.203854,0.26997 -0.499314,-0.47458 -1.326652,-0.45686 -2.180603,0.0467 -1.169307,0.68952 -2.886771,0.42963 -4.557482,-0.68965 -0.687922,-0.46087 -1.62319,-1.04076 -2.078371,-1.28866 -0.51971,-0.28303 -0.827606,-0.65663 -0.827606,-1.00421 0,-0.30442 -0.311091,-0.86459 -0.691316,-1.24482 -0.380225,-0.38022 -1.023009,-1.43059 -1.428411,-2.33416 -0.766496,-1.70837 -1.052264,-3.63588 -1.576256,-10.63183 -0.133069,-1.77668 -0.352353,-3.86028 -0.487296,-4.63021 -0.134943,-0.76994 -0.20243,-2.7691 -0.149976,-4.44259 0.07403,-2.36192 0.0029,-3.23802 -0.31781,-3.9156 -0.254018,-0.53665 -0.387514,-1.42694 -0.346556,-2.31117 0.03664,-0.79105 -0.01453,-1.51942 -0.11371,-1.6186 -0.223002,-0.223 -0.234948,-1.22946 -0.02122,-1.78646 0.134819,-0.35133 0.230045,-0.32711 0.623308,0.15855 0.428347,0.52898 0.531148,0.5455 1.33168,0.21391 0.611298,-0.25321 1.015489,-0.69389 1.368599,-1.49215 0.553821,-1.252 0.900689,-1.59455 1.104006,-1.09025 0.0737,0.18281 0.157112,-0.0248 0.185359,-0.46137 0.07403,-1.14418 -0.02088,-1.81625 -0.29704,-2.10343 -0.132926,-0.13825 -0.241694,-0.46567 -0.241694,-0.7276 0,-0.261942 -0.119062,-0.476254 -0.264583,-0.476254 -0.145521,0 -0.240104,-0.0893 -0.210185,-0.198438 0.111238,-0.405774 -0.875776,-1.918229 -1.251818,-1.918229 -0.214545,0 -0.39008,-0.142875 -0.39008,-0.3175 0,-0.246944 -0.07056,-0.246944 -0.3175,0 -0.450692,0.450691 -1.019218,0.396745 -0.836515,-0.07937 0.08376,-0.218281 0.03375,-0.396875 -0.111149,-0.396875 -0.144894,0 -0.341691,-0.417087 -0.437324,-0.926859 -0.137687,-0.733928 -0.389456,-1.036838 -1.20953,-1.455208 -1.266994,-0.646371 -2.083739,-0.672329 -2.516867,-0.07999 -0.285181,0.390009 -0.465135,0.407226 -1.382781,0.132292 -1.771253,-0.53068 -5.375878,-0.233829 -7.608125,0.62655 -0.750514,0.289272 -2.583846,1.964416 -2.979033,2.721987 -0.951514,1.824047 -0.568442,4.388234 0.853352,5.712124 1.666282,1.55154 2.591387,2.26494 2.937076,2.26494 0.1914,0 0.421584,0.11906 0.511522,0.26458 0.09368,0.15158 1.484608,0.26631 3.256761,0.26864 1.701281,0.002 3.257319,0.10797 3.457866,0.235 0.713454,0.45189 -0.01749,0.81932 -1.637014,0.82289 -0.900917,0.002 -1.891168,0.0716 -2.200561,0.15458 -0.797586,0.21404 -1.279083,1.27453 -1.217816,2.68224 0.02893,0.66471 -0.02093,1.13504 -0.1108,1.04517 -0.08987,-0.0899 -0.177374,-0.9116 -0.194458,-1.82607 -0.02994,-1.60295 -0.05686,-1.66563 -0.749437,-1.74549 -1.086295,-0.12525 -1.180481,0.79797 -0.364395,3.57189 0.578988,1.96799 0.685374,2.84777 0.681905,5.63908 -0.0043,3.47162 -0.262548,4.54321 -0.860748,3.57187 -0.452556,-0.73485 -0.680706,-2.15753 -0.411871,-2.56831 0.223618,-0.34168 0.03735,-2.2229 -0.269655,-2.72335 -0.593286,-0.96714 -0.738074,7.0907 -0.173527,9.65729 0.208057,0.94588 0.378248,2.01744 0.378206,2.38125 l -8.2e-5,0.66145 -0.360794,-0.65161 c -0.357709,-0.64604 -0.362884,-0.64151 -0.604978,0.52917 -0.29347,1.41911 -0.20247,9.32401 0.152948,13.2861 0.224507,2.50274 0.408096,3.20283 1.526423,5.82083 1.051894,2.46248 1.523873,3.22796 2.735583,4.4367 1.153911,1.15108 1.800912,1.56266 3.05186,1.94144 2.978187,0.90175 4.363799,2.3039 5.288277,5.35139 0.467124,1.53985 0.504155,2.22661 0.120065,2.22661 -0.154109,0 -0.199618,-0.13038 -0.101132,-0.28974 z M 62.662046,141.10991 c -0.08446,-0.21106 -0.147157,-0.14837 -0.159853,0.15986 -0.01149,0.27891 0.05105,0.43518 0.138965,0.34726 0.08792,-0.0879 0.09732,-0.31612 0.02089,-0.50712 z m 0.0016,-6.76341 c -0.06655,-0.25466 -0.121,-0.0463 -0.121,0.46302 0,0.50933 0.05445,0.71769 0.121,0.46302 0.06655,-0.25466 0.06655,-0.67138 0,-0.92604 z m 0,-8.20208 c -0.06655,-0.25466 -0.121,-0.0463 -0.121,0.46302 0,0.50932 0.05445,0.71768 0.121,0.46302 0.06655,-0.25466 0.06655,-0.67138 0,-0.92604 z m 15.692618,-16.22136 c 0,-0.13693 -0.178594,-0.24896 -0.396875,-0.24896 -0.409154,0 -0.525648,0.31219 -0.227679,0.61018 0.211383,0.21138 0.624554,-0.0276 0.624554,-0.36122 z m -1.11564,-0.97657 c -0.0037,-0.8383 -0.03933,-0.89981 -0.229708,-0.39658 -0.191717,0.50679 -0.09228,1.38877 0.156572,1.38877 0.04264,0 0.07555,-0.44648 0.07314,-0.99219 z m -17.494507,-8.33437 c -0.0734,-0.1819 -0.133452,-0.0331 -0.133452,0.33073 0,0.3638 0.06005,0.51263 0.133452,0.33073 0.0734,-0.1819 0.0734,-0.47956 0,-0.66146 z m -0.460361,-3.037118 c 0.508163,-1.115296 2.145701,-3.246733 2.494397,-3.246733 0.171663,0 0.727069,-0.216946 1.234237,-0.482103 0.922462,-0.482279 3.469423,-1.194341 5.373317,-1.502234 0.819716,-0.132563 0.954368,-0.232567 0.709848,-0.527197 -1.053042,-1.268838 -6.793867,-0.784131 -8.392183,0.708565 -1.115631,1.041906 -1.954939,2.749603 -2.11537,4.304034 -0.165037,1.599055 0.152074,1.938916 0.695754,0.745668 z m -1.566951,-1.130066 c 0,-0.145521 -0.0525,-0.264584 -0.116676,-0.264584 -0.06417,0 -0.190262,0.119063 -0.280199,0.264584 -0.08994,0.14552 -0.03743,0.264583 0.116677,0.264583 0.154109,0 0.280198,-0.119063 0.280198,-0.264583 z M 121.7351,158.159 c 0.42228,-0.72329 1.59759,-2.07449 1.59906,-1.83836 0.003,0.47061 -1.21216,2.29744 -1.52935,2.29935 -0.25051,0.002 -0.26886,-0.11988 -0.0697,-0.46099 z m -13.44334,-10.66846 c -1.73041,-0.30452 -2.9556,-0.97614 -2.75141,-1.50825 0.1109,-0.289 0.41547,-0.34304 1.23215,-0.21861 0.59667,0.0909 2.07867,0.27665 3.29335,0.41277 2.03891,0.22848 2.25224,0.20658 2.77812,-0.28524 0.48844,-0.45681 0.78492,-0.50791 2.08025,-0.35852 1.10055,0.12692 1.72626,0.0666 2.30498,-0.22207 0.50058,-0.24972 1.26291,-0.35579 2.06126,-0.2868 0.80959,0.07 1.13491,0.0235 0.90126,-0.12866 -0.29103,-0.18954 -0.23704,-0.31971 0.26459,-0.63799 0.34661,-0.21993 1.04541,-0.48675 1.55287,-0.59295 0.59107,-0.12368 1.74848,-0.89934 3.22044,-2.15823 l 2.29776,-1.96517 1.17471,-3.62242 c 1.38274,-4.26394 1.92441,-7.19144 1.65961,-8.9696 -0.10381,-0.69707 -0.17343,-1.56506 -0.15472,-1.92886 0.1256,-2.44207 0.0933,-2.95855 -0.19617,-3.13745 -0.1767,-0.1092 -0.40091,-0.78741 -0.49825,-1.50711 -0.10123,-0.74848 -0.36439,-1.44196 -0.61485,-1.62023 -0.24083,-0.17141 -0.60313,-0.82625 -0.80512,-1.45521 -0.20198,-0.62895 -0.84895,-1.64246 -1.4377,-2.25226 -0.58875,-0.60979 -1.31751,-1.3837 -1.61947,-1.71979 -1.29247,-1.43859 -3.26606,-3.12462 -3.65756,-3.12462 -0.233,0 -0.42364,-0.1 -0.42364,-0.22224 0,-0.12223 -0.47453,-0.37884 -1.05451,-0.57025 -0.97256,-0.32098 -2.24869,-1.31892 -1.69847,-1.32823 0.13169,-0.002 0.0609,-0.11933 -0.15743,-0.26021 -0.21829,-0.14089 -0.78383,-0.18535 -1.25677,-0.0988 -0.54869,0.10041 -0.8599,0.051 -0.8599,-0.13666 0,-0.16172 -0.17859,-0.29403 -0.39688,-0.29403 -0.21828,0 -0.66476,-0.26789 -0.99218,-0.59532 -0.57662,-0.57661 -0.74075,-0.5936 -5.22552,-0.54108 -2.98509,0.035 -4.97232,0.17598 -5.59309,0.39688 -3.09314,1.1007 -7.72641,6.47688 -8.8539,10.27355 -0.214601,0.72264 -0.49924,1.31389 -0.632529,1.31389 -0.133289,0 -0.319188,0.44649 -0.413107,0.99219 -0.09392,0.5457 -0.450935,2.07205 -0.793364,3.39188 -0.601525,2.31847 -0.609925,2.48861 -0.248216,5.02708 0.205909,1.44507 0.482177,3.16318 0.613926,3.81802 0.281495,1.39914 1.554194,4.81212 1.870924,5.01724 0.120716,0.0782 0.604922,0.82814 1.076013,1.6666 0.978532,1.74161 3.057798,3.71652 4.705113,4.46896 0.61846,0.2825 1.12448,0.67863 1.12448,0.88029 0,0.20167 0.22242,0.43726 0.49427,0.52354 0.27185,0.0863 0.69157,0.37489 0.93271,0.64135 0.3593,0.39701 0.37537,0.53683 0.0891,0.77444 -0.54246,0.4502 -2.18856,-0.23699 -3.29403,-1.37512 -0.555885,-0.5723 -1.109505,-0.91952 -1.330765,-0.83462 -0.468339,0.17972 -1.712505,-0.66833 -3.108971,-2.11913 -0.582083,-0.60474 -1.292053,-1.22515 -1.577707,-1.37869 -0.285658,-0.15355 -0.538158,-0.55791 -0.561116,-0.89858 -0.02296,-0.34067 -0.292637,-1.15519 -0.599291,-1.81003 -0.306655,-0.65484 -0.560171,-1.5814 -0.563367,-2.05902 -0.0065,-0.96353 -0.657831,-2.73118 -0.986147,-2.6761 -0.934746,0.15684 -1.13633,-0.0559 -1.13633,-1.19911 0,-0.71242 0.162978,-1.3347 0.415774,-1.5875 0.228674,-0.22867 0.309309,-0.41577 0.179184,-0.41577 -0.203406,0 -0.297354,-1.1027 -0.338124,-3.96875 -0.03986,-2.80198 0.429175,-6.38448 0.871688,-6.65796 0.157414,-0.0973 0.308219,-0.87147 0.335124,-1.7204 0.06661,-2.10181 0.488122,-4.19141 0.940366,-4.66177 0.205761,-0.21401 0.909894,-1.04126 1.564738,-1.83833 1.273969,-1.55069 2.298131,-2.37085 5.025609,-4.02455 2.414225,-1.46377 3.429665,-1.77664 6.748355,-2.0792 5.18319,-0.47255 6.55349,-0.36866 9.80052,0.74299 4.15584,1.42278 7.52969,3.33747 7.52969,4.27316 0,0.19023 1.06421,1.40807 2.36491,2.7063 2.721,2.71582 4.31323,5.48519 4.88545,8.49726 0.99024,5.21243 1.25634,6.87928 1.48459,9.29976 0.3235,3.43035 -0.0128,4.98619 -1.79167,8.28781 -0.62509,1.16019 -1.27518,2.57226 -1.44466,3.13794 -0.18691,0.62384 -0.66323,1.30334 -1.21063,1.72702 -0.49636,0.38418 -1.39633,1.1386 -1.99993,1.67649 -0.60359,0.53788 -2.02572,1.46927 -3.16028,2.06975 -2.05286,1.0865 -2.0759,1.09158 -4.7625,1.05071 -1.48481,-0.0226 -3.94982,0.0206 -5.47778,0.096 -1.52797,0.0754 -3.41608,0.0248 -4.1958,-0.11239 z M 62.23761,121.95518 c 0.01269,-0.30822 0.07539,-0.37092 0.159852,-0.15985 0.07643,0.191 0.06703,0.4192 -0.02089,0.50712 -0.08792,0.0879 -0.150452,-0.0683 -0.138964,-0.34727 z m 3.774581,-10.04353 c -0.08617,-0.22455 -0.09756,-0.4674 -0.02529,-0.53966 0.07225,-0.0723 0.194882,0.11148 0.2725,0.40829 0.164875,0.63048 -0.01831,0.72784 -0.2472,0.13137 z m -20.565799,-9.2561 c -0.460828,-0.46083 -0.600218,-1.58604 -0.163002,-1.31583 0.163071,0.10079 0.264583,-0.35002 0.264583,-1.175 0,-0.862028 -0.107058,-1.314987 -0.300732,-1.272389 -0.495767,0.109044 -0.735893,-1.298411 -0.405298,-2.375585 l 0.304785,-0.993081 0.158365,0.791364 0.158365,0.791365 0.269234,-0.661458 c 0.431857,-1.060994 0.670461,-3.439584 0.345035,-3.439584 -0.155223,0 -0.389902,0.267891 -0.521509,0.595313 -0.173372,0.431326 -0.243906,0.472069 -0.256057,0.147906 -0.0092,-0.246073 0.102291,-0.52099 0.247812,-0.610927 0.145521,-0.08994 0.264583,-0.575766 0.264583,-1.079621 0,-0.721378 0.141153,-0.980412 0.664076,-1.218672 0.570842,-0.260092 0.756573,-0.215675 1.322916,0.316377 0.816468,0.767032 0.815768,0.814677 -0.03761,2.558922 -0.589255,1.204395 -0.741972,2.019704 -0.992187,5.296983 -0.301941,3.954767 -0.491247,4.476027 -1.323357,3.643917 z m 5.634067,-0.16961 c -0.176183,-0.3292 -0.306966,-1.74032 -0.306966,-3.312108 0,-1.506201 -0.104179,-2.802933 -0.23151,-2.881628 -0.456886,-0.282372 -0.21892,-1.354356 0.437555,-1.971081 0.367986,-0.345705 0.651932,-0.812944 0.63099,-1.038308 -0.08237,-0.886456 0.05115,-1.071213 0.774142,-1.071213 0.548309,0 0.834235,0.182068 1.058333,0.673908 0.494838,1.086052 0.362986,1.713587 -0.579155,2.756424 -1.047316,1.159254 -1.356108,2.763451 -1.077057,5.595376 0.187074,1.8985 -0.09329,2.39412 -0.706332,1.24863 z m 34.644236,0.37514 c -0.111667,-0.55479 -0.194424,-2.19792 -0.169905,-3.373436 0.08551,-4.099197 0.104873,-3.99253 -0.933463,-5.141844 -0.535347,-0.592564 -0.973357,-1.196108 -0.973357,-1.34121 0,-0.145101 -0.178594,-0.263821 -0.396875,-0.263821 -0.506997,0 -0.517393,-0.499527 -0.01442,-0.69254 0.519158,-0.199219 2.103075,1.107072 2.744415,2.263379 0.287578,0.518486 0.729144,1.881111 0.98126,3.028054 0.392088,1.783718 0.4109,2.300369 0.130048,3.571878 -0.180592,0.81758 -0.448734,1.63534 -0.595874,1.81724 -0.297259,0.36749 -0.710252,0.43828 -0.771839,0.1323 z m -9.853625,-1.543 c -0.08833,-0.23018 -0.160599,-0.60622 -0.160599,-0.83565 0,-0.31516 0.146806,-0.26136 0.600456,0.22007 0.374036,0.39694 0.498747,0.71052 0.330729,0.83161 -0.409538,0.29514 -0.594307,0.24334 -0.770586,-0.21603 z m 14.016383,-1.398327 c -0.07796,-0.126141 -0.189727,-1.406063 -0.248372,-2.84427 -0.10504,-2.575949 -0.639599,-4.599297 -1.21511,-4.599297 -0.152947,0 -0.278085,-0.178594 -0.278085,-0.396875 0,-0.506089 0.51851,-0.507192 1.238867,-0.0026 1.143616,0.80102 2.303343,5.802289 1.703165,7.34482 -0.273913,0.703989 -0.910116,0.968049 -1.200465,0.498256 z"
       id="path7266" /></g></svg>
