<?xml version="1.0" encoding="UTF-8" standalone="no"?>
<!-- Generator: Adobe Illustrator 13.0.0, SVG Export Plug-In . SVG Version: 6.00 Build 14948)  -->

<svg
   version="1.1"
   id="Layer_1"
   x="0px"
   y="0px"
   viewBox="0 0 69.093826 74.148033"
   xml:space="preserve"
   sodipodi:docname="em-logo.svg"
   width="69.093826"
   height="74.148033"
   inkscape:version="1.2.2 (b0a84865, 2022-12-01)"
   xmlns:inkscape="http://www.inkscape.org/namespaces/inkscape"
   xmlns:sodipodi="http://sodipodi.sourceforge.net/DTD/sodipodi-0.dtd"
   xmlns="http://www.w3.org/2000/svg"
   xmlns:svg="http://www.w3.org/2000/svg"><defs
   id="defs199" /><sodipodi:namedview
   id="namedview197"
   pagecolor="#ffffff"
   bordercolor="#000000"
   borderopacity="0.25"
   inkscape:showpageshadow="2"
   inkscape:pageopacity="0.0"
   inkscape:pagecheckerboard="0"
   inkscape:deskcolor="#d1d1d1"
   showgrid="false"
   inkscape:zoom="2.36"
   inkscape:cx="-2.7542373"
   inkscape:cy="51.059322"
   inkscape:window-width="1309"
   inkscape:window-height="747"
   inkscape:window-x="0"
   inkscape:window-y="25"
   inkscape:window-maximized="0"
   inkscape:current-layer="Layer_1" /> 

	<path
   fill="#fbfaf9"
   stroke="#fbfaf9"
   d="m 26.032828,44.638 c -1.912,1.608 -5.86,0.378 -7.414,-0.789 -1.286,-0.966 -2.724,-3.331 -2.839,-5.679 -0.189,-3.83 2.021,-6.411 4.101,-7.728 2.777,-1.759 7.727,-3.499 13.408,-1.104 4.419,1.592 8.606,5.917 10.095,9.307 3.258,7.419 -0.25,16.403 -5.206,20.505 -2.023,1.674 -4.841,3.283 -8.359,3.627 -8.74,0.857 -15.474,-2.763 -19.085,-7.728 -2.6090004,-3.585 -4.6200004,-8.626 -5.0480004,-13.723 -0.64,-7.625 1.622,-13.953 4.8900004,-17.981 4.119,-5.08 11.826,-7.995 21.293,-5.995 3.161,0.667 6.322,2.091 9.307,3.47 2.125,0.983 5.95,3.395 9.463,3.155 3.048,-0.209 5.759,-2.334 6.152,-4.417 0.787,-4.186 -3.186,-7.947 -5.837,-9.621 -2.593,-1.637 -8.423,-3.173 -12.46,-3.471 -9.88,-0.726 -19.593,3.513 -25.396,7.887 -3.6680004,2.766 -6.1270004,6.616 -8.2030004,11.042 -1.891,4.035 -3.596,10.001 -2.996,16.088 0.54,5.469 3.281,11.487 6.468,15.773 3.2150004,4.324 7.1270004,8.292 11.5130004,10.567 5.615,2.913 14.269,4.115 20.506,2.367 2.125,-0.597 4.122,-1.78 6.151,-2.998 3.997,-2.397 6.378,-4.348 8.202,-8.99 2.164,-5.506 1.384,-12.418 1.578,-20.19 2.221,-1.853 4.986,-3.967 8.201,-3.312 3.434,0.7 4.093,5.651 3.787,9.938 -0.631,8.8 -5.365,15.376 -10.411,20.031 -6,5.537 -15.995,10.234 -27.288,8.676 -4.868,-0.673 -9.263,-2.715 -13.25,-4.889 C 9.6998276,64.277 4.3388276,56.772 1.8988276,47.477 c -2.782,-10.604 -0.511,-21.915 4.258,-29.654 2.405,-3.901 6.5020004,-7.458 10.4110004,-10.094 5.364,-3.617 11.442,-6.335 19.874,-6.783 8.58,-0.456 17.534,2.633 21.925,7.887 2.117,2.534 4.302,6.512 4.101,11.04 -0.274,6.202 -4.758,10.698 -12.776,9.938 -9.261,-0.878 -14.036,-8.142 -22.555,-10.095 -13.091,-3 -21.9380004,9 -19.8750004,21.926 1.146,7.172 5.7910004,13.288 10.7260004,15.773 8.137,4.097 17.492,0.142 20.664,-6.31 3.07,-6.246 -0.484,-15.496 -5.68,-18.297 -3.656,-1.97 -10.876,-3.223 -13.88,0.789 -3.671,4.903 -0.634,12.218 6.941,11.041 z"
   id="path182" />
	<path
   fill="none"
   d="M 0.1648276,0 C 23.141828,0 46.117828,0 69.093828,0 c 0,24.659 0,49.317 0,73.976 -23.029,0 -46.059,0 -69.0870004,0 0,-24.501 0,-49.001 0,-73.503 -0.013,-0.223 -0.027,-0.447 0.158,-0.473 z"
   id="path184" />
	<ellipse
   fill="#fbfaf9"
   stroke="#fbfaf9"
   cx="23.335829"
   cy="38.016998"
   rx="0.65700001"
   ry="0.63499999"
   id="ellipse186" />
	<ellipse
   fill="#fbfaf9"
   stroke="#fbfaf9"
   cx="26.606829"
   cy="36.539001"
   rx="0.708"
   ry="0.71399999"
   id="ellipse188" />
	<ellipse
   fill="#fbfaf9"
   stroke="#fbfaf9"
   cx="30.005829"
   cy="38.23"
   rx="1.117"
   ry="1.045"
   id="ellipse190" />
	<ellipse
   fill="#fbfaf9"
   stroke="#fbfaf9"
   cx="29.270828"
   cy="42.396999"
   rx="1.232"
   ry="1.2920001"
   id="ellipse192" />
	<rect
   x="80.956825"
   y="14.062"
   fill="none"
   width="248.375"
   height="71.219002"
   id="rect194" />
	 
</svg>
