<?xml version="1.0" encoding="UTF-8" standalone="no"?>
<svg
   version="1.1"
   id="Layer_1"
   x="0px"
   y="0px"
   width="144.6394"
   viewBox="0 0 144.6394 255.78149"
   enable-background="new 0 0 156 264"
   xml:space="preserve"
   sodipodi:docname="em.svg"
   inkscape:version="1.2.2 (b0a84865, 2022-12-01)"
   height="255.78149"
   xmlns:inkscape="http://www.inkscape.org/namespaces/inkscape"
   xmlns:sodipodi="http://sodipodi.sourceforge.net/DTD/sodipodi-0.dtd"
   xmlns="http://www.w3.org/2000/svg"
   xmlns:svg="http://www.w3.org/2000/svg"><defs
   id="defs2255" /><sodipodi:namedview
   id="namedview2253"
   pagecolor="#ffffff"
   bordercolor="#000000"
   borderopacity="0.25"
   inkscape:showpageshadow="2"
   inkscape:pageopacity="0.0"
   inkscape:pagecheckerboard="0"
   inkscape:deskcolor="#d1d1d1"
   showgrid="false"
   inkscape:zoom="1.3357271"
   inkscape:cx="-2.9946237"
   inkscape:cy="137.00403"
   inkscape:window-width="1440"
   inkscape:window-height="796"
   inkscape:window-x="0"
   inkscape:window-y="25"
   inkscape:window-maximized="1"
   inkscape:current-layer="Layer_1" />
<path
   fill=""
   opacity="1"
   stroke="#2d6873"
   d="m 39.079499,80.120558 c 0.519562,-0.93132 1.692913,-2.087875 1.461231,-2.760399 C 36.67706,66.144789 33.422036,54.622572 28.412732,43.926821 23.571299,33.58951 15.111472,33.390211 7.0424224,42.310625 1.4549104,47.904707 0.87678145,56.252524 5.8394494,62.108435 13.815322,71.519903 24.795176,76.285086 35.74529,81.019636 c 0.571449,0.247078 1.680099,-0.748275 3.334209,-0.899078 m 70.637541,-4.410805 c 0.33746,4.440094 2.53533,1.253029 3.29422,0.553009 5.45089,-5.028053 11.00836,-9.988273 15.9871,-15.465332 3.96532,-4.362167 7.74921,-9.101772 10.57022,-14.246017 5.34801,-9.752308 2.32393,-17.0387 -8.41643,-21.849541 -6.67385,-4.231979 -11.43183,-3.626358 -14.48479,3.549648 -3.38692,7.960988 -5.68284,16.497872 -7.47905,24.99017 -1.56967,7.421318 -1.78638,15.128807 -2.69705,23.605492 1.8346,-1.064522 2.51648,-1.460175 3.22578,-1.137429 M 76.510907,67.568686 c 1.486412,2.426452 2.257652,0.995552 2.747665,-0.601464 1.115197,-3.634536 2.442749,-7.250656 3.076119,-10.977573 1.93061,-11.360218 4.76049,-22.744339 5.001076,-34.166321 0.25061,-11.8977747 -2.85038,-20.3034257 -19.633805,-19.2357727 -8.765999,0.33192 -12.209423,3.668544 -11.836345,12.2521897 0.846565,19.477228 10.19543,36.095873 18.336292,53.091635 0.01751,0.03654 1.159439,-0.465523 2.308998,-0.362694 m 8.070419,123.844284 c 4.234276,-0.82438 8.53508,-1.40222 12.689349,-2.52314 9.396095,-2.53533 18.099775,-6.49797 25.443715,-13.11422 13.06701,-11.77218 15.26839,-26.37347 11.60331,-42.73289 -2.52637,-11.27672 -8.64582,-20.29095 -17.82939,-26.732 -7.53648,-5.28583 -16.22345,-8.390224 -25.580743,-9.918554 C 80.775166,94.737227 70.823201,94.183462 61.574261,98.825006 40.561833,109.37 30.065919,128.13763 27.233521,150.16265 c -2.72331,21.17681 0.186844,42.45639 8.362385,62.62966 4.769047,11.7677 11.287624,22.25032 21.706326,29.83378 15.976039,11.6285 33.855297,12.40566 52.390948,8.69338 2.80712,-0.5622 5.46618,-1.86367 8.90663,-2.97286 1.5624,-0.44316 3.1248,-0.88632 5.50324,-1.56096 -2.58722,-1.45581 -4.58773,-2.52481 -6.53371,-3.68522 C 97.915155,231.38017 84.684712,215.44192 84.581326,191.41297 Z"
   id="path2242"
   style="fill:none;stroke-width:8;stroke-dasharray:none" />
<path
   fill=""
   opacity="1"
   stroke="#2d6873"
   d="m 117.88691,248.49629 c -2.72755,0.95951 -5.38661,2.26098 -8.19373,2.82318 -18.535651,3.71228 -36.414909,2.93512 -52.390948,-8.69338 C 46.88353,235.04263 40.364953,224.56001 35.595906,212.79231 27.420365,192.61904 24.510211,171.33946 27.233521,150.16265 30.065919,128.13763 40.561833,109.37 61.574261,98.825006 c 9.24894,-4.641544 19.200905,-4.087779 29.333306,-2.43284 9.357293,1.52833 18.044263,4.632724 25.580743,9.918554 9.18357,6.44105 15.30302,15.45528 17.82939,26.732 3.66508,16.35942 1.4637,30.96071 -11.60331,42.73289 -7.34394,6.61625 -16.04762,10.57889 -25.443715,13.11422 -4.154269,1.12092 -8.455073,1.69876 -13.492388,2.54881 -4.544136,-0.0278 -3.476609,2.67276 -3.306481,4.63411 2.153214,24.82425 15.930409,41.38095 37.415104,52.42354 z"
   id="path2244"
   style="fill:none" />
<path
   fill=""
   opacity="0"
   stroke="#2d6873"
   d="m 68.480427,2.6786383 c 16.00496,-1.158736 19.10595,7.246915 18.85534,19.1446897 -0.240586,11.421982 -3.070466,22.806103 -5.001076,34.166321 -0.63337,3.726917 -1.960922,7.343037 -3.076119,10.977573 -0.490013,1.597016 -1.261253,3.027916 -3.053627,0.04435 C 75.40453,64.901747 74.903561,63.351073 74.416676,61.795988 70.285573,48.601172 65.514065,35.559916 62.293805,22.146298 60.63625,15.241928 59.670003,6.9890203 68.480427,2.6786383 Z"
   id="path2246" />
<path
   fill="#65C6D0"
   opacity="1"
   stroke="none"
   d="m 131.53155,25.210655 c 10.36096,4.302058 13.38504,11.58845 8.03703,21.340758 -2.82101,5.144245 -6.6049,9.88385 -10.57022,14.246017 -4.97874,5.477059 -10.53621,10.437279 -15.9871,15.465332 -0.75889,0.70002 -2.95676,3.887085 -3.29468,-1.307373 0.68882,-5.161842 0.93599,-9.696029 2.15565,-13.9515 2.90221,-10.126007 5.96505,-20.229778 9.58447,-30.114986 1.49614,-4.086197 5.27916,-6.326962 10.07485,-5.678248 z"
   id="path2248"
   style="fill:none" />
<path
   fill="#64C6CF"
   opacity="1"
   stroke="none"
   d="M 7.7729384,42.240904 C 15.111472,33.390211 23.571299,33.58951 28.412732,43.926821 33.422036,54.622572 36.67706,66.144789 40.54073,77.360159 40.772412,78.032683 39.599061,79.189238 38.480405,79.786825 30.490006,74.82469 22.977681,70.376684 15.739035,65.520705 7.3123224,59.867712 4.7208984,51.954294 7.7729384,42.240904 Z"
   id="path2250"
   style="fill:none" />
 
 
 
</svg>
