<?xml version="1.0" encoding="UTF-8" standalone="no"?>
<!-- Created with Inkscape (http://www.inkscape.org/) -->

<svg
   width="29.400003mm"
   height="28.713993mm"
   viewBox="0 0 29.400003 28.713993"
   version="1.1"
   id="svg369"
   inkscape:export-filename="fish.svg"
   inkscape:export-xdpi="96"
   inkscape:export-ydpi="96"
   xmlns:inkscape="http://www.inkscape.org/namespaces/inkscape"
   xmlns:sodipodi="http://sodipodi.sourceforge.net/DTD/sodipodi-0.dtd"
   xmlns="http://www.w3.org/2000/svg"
   xmlns:svg="http://www.w3.org/2000/svg">
  <sodipodi:namedview
     id="namedview371"
     pagecolor="#ffffff"
     bordercolor="#000000"
     borderopacity="0.25"
     inkscape:showpageshadow="2"
     inkscape:pageopacity="0.0"
     inkscape:pagecheckerboard="0"
     inkscape:deskcolor="#d1d1d1"
     inkscape:document-units="mm"
     showgrid="false" />
  <defs
     id="defs366" />
  <g
     inkscape:label="Layer 1"
     inkscape:groupmode="layer"
     id="layer1"
     transform="translate(-0.08315725,-1.185854)">
    <path
       style="fill:#2d6873;stroke-width:0.176389"
       d="m 28.571553,29.76497 c -0.22241,-0.16263 -0.39503,-0.69028 -0.56339,-1.72211 -0.13349,-0.8182 -0.36972,-2.00358 -0.52494,-2.63417 -0.15522,-0.63059 -0.35351,-1.65694 -0.44064,-2.28079 -0.21683,-1.55245 -0.62284,-1.79654 -1.48734,-0.89421 -0.87565,0.91399 -1.88337,0.59319 -2.13814,-0.68066 -0.23273,-1.16364 1.28958,-1.91809 2.1857,-1.08323 0.20827,0.19403 0.43068,0.35278 0.49426,0.35278 0.27877,0 -0.34589,-1.99773 -0.7623,-2.43794 -0.12127,-0.1282 -0.22049,-0.38338 -0.22049,-0.56706 0,-0.18369 -0.15595,-0.41744 -0.34656,-0.51945 -0.19061,-0.10201 -0.44242,-0.52152 -0.5596,-0.93225 -0.11717,-0.41072 -0.3184,-0.87208 -0.44719,-1.02524 -0.12878,-0.15316 -0.23415,-0.33497 -0.23415,-0.40402 0,-0.1368 -0.66031,-1.10432 -1.01423,-1.48611 -0.12127,-0.13082 -0.22049,-0.29893 -0.22049,-0.37358 0,-0.21538 -1.53206,-1.77935 -1.74305,-1.77935 -0.10478,0 -0.23903,-0.19334 -0.29834,-0.42965 -0.21415,-0.85323 -4.08186,-4.1564579 -4.866757,-4.1564579 -0.192396,0 -0.403183,-0.18583 -0.500186,-0.4409697 -0.09221,-0.24254 -0.283014,-0.44097 -0.424007,-0.44097 -0.140993,0 -0.361876,-0.1055297 -0.490854,-0.2344997 C 13.716798,5.3429627 13.273757,5.093353 11.939327,4.4515733 11.472944,4.2272633 10.836406,3.9187336 10.524798,3.7659436 10.164128,3.5890939 9.7314463,3.5249439 9.3341736,3.5894139 c -0.5302637,0.0861 -0.6240637,0.0511 -0.6240637,-0.23242 0,-0.2464697 -0.172916,-0.3653897 -0.6614577,-0.4549097 -0.3638017,-0.0667 -0.8180264,-0.22902 -1.0093874,-0.3607697 -0.191359,-0.13176 -0.5632227,-0.23956 -0.8263634,-0.23956 -0.263139,0 -0.7018847,-0.0921 -0.9749877,-0.20458 C 4.96481,1.9846648 4.0666756,1.8457548 3.2420569,1.7884948 2.0732025,1.7072948 1.7427528,1.6260848 1.7427528,1.4198151 c 0,-0.21768 0.26579,-0.25725 1.4993041,-0.2232 0.8246187,0.0228 1.6986651,0.12377 1.9423271,0.22447 0.2436597,0.10069 0.8389714,0.2524797 1.3229151,0.3372997 0.8364857,0.14661 1.1777694,0.24974 2.8201715,0.8522094 3.9291574,1.4412794 7.6852324,3.8052279 10.5941824,6.6676064 1.25733,1.2371894 3.13202,3.5561894 4.05659,5.0179894 0.81435,1.28753 2.37075,4.40809 2.37075,4.7533 0,0.17533 0.11043,0.41043 0.2454,0.52245 0.13497,0.11201 0.28622,0.41939 0.33612,0.68305 0.12967,0.68523 0.51791,1.61638 0.9721,2.33148 0.21566,0.33955 0.46639,0.89517 0.55719,1.23472 0.33076,1.23696 0.69325,2.93993 0.8959,4.2089 0.19142,1.19867 0.18158,1.32427 -0.12807,1.63392 -0.28687,0.28687 -0.38185,0.30149 -0.65608,0.10096 z m -3.31387,-8.27899 c 0.0368,-0.19449 -0.11493,-0.38558 -0.41475,-0.52218 -0.40656,-0.18525 -0.50555,-0.17075 -0.706,0.10339 -0.35717,0.48846 -0.12465,0.84137 0.51334,0.77913 0.35443,-0.0346 0.56992,-0.16242 0.60741,-0.36034 z M 0.65249743,23.8898 c -0.0466,-0.12143 0.100268,-0.47574 0.326376,-0.78734 C 1.2313611,22.75451 1.3145571,22.50919 1.1945031,22.46664 0.54116743,22.23508 0.43511276,21.98763 0.68488243,21.27754 c 0.294328,-0.83677 0.165371,-1.64126 -0.28604967,-1.78454 -0.426406,-0.13534 -0.420867,-0.3519 0.01685,-0.65848 0.19618167,-0.13741 0.45551367,-0.66238 0.59310534,-1.20063 0.23292,-0.91117 0.523205,-1.20201 0.9103657,-0.91213 0.4045527,0.30291 0.9701384,1.29518 0.9701384,1.70202 0,0.24074 0.07937,0.48676 0.176389,0.54672 0.09701,0.06 0.1763887,0.29808 0.1763887,0.52917 0,0.23108 -0.07937,0.4692 -0.1763887,0.52916 -0.09701,0.06 -0.176389,0.33777 -0.176389,0.61736 0,0.27959 0.07937,0.55741 0.176389,0.61736 0.3358457,0.20757 0.1794697,0.79991 -0.264584,1.00224 -0.5041607,0.22971 -0.5927527,0.85707 -0.170515,1.2075 0.477055,0.39592 0.174001,0.61209 -0.8760734,0.6249 -0.6617247,0.008 -1.04688537,-0.0648 -1.10199937,-0.20839 z"
       id="path302" />
    <path
       style="fill:#2d6873;fill-rule:evenodd;stroke:#2d6873;stroke-width:0.264583px;stroke-linecap:butt;stroke-linejoin:miter;stroke-opacity:1"
       d="M 2.2067295,17.981907 2.3571955,2.3834835"
       id="path552"
       inkscape:connector-type="polyline"
       inkscape:connector-curvature="0" />
  </g>
</svg>
