<svg width="36" height="58" viewBox="0 0 36 58" fill="none" xmlns="http://www.w3.org/2000/svg">
<path d="M33.957 57.8065C34.4859 57.9654 35.0435 57.6655 35.2025 57.1366C35.3614 56.6077 35.0615 56.0501 34.5326 55.8911L33.957 57.8065ZM12.7579 34.6712L13.7571 34.7113L12.7579 34.6712ZM21.8274 36.8996L21.2058 36.1163L21.2058 36.1163L21.8274 36.8996ZM2.54595 30.8431L3.45977 30.437L2.54595 30.8431ZM6.45837 9.86691L5.65363 9.27328L6.45837 9.86691ZM24.4864 0.68142L13.0399 2.20169L20.0797 11.3545L24.4864 0.68142ZM34.5326 55.8911C29.0713 54.2497 23.7297 51.966 19.8295 48.5782C15.9682 45.224 13.5134 40.7882 13.7571 34.7113L11.7587 34.6312C11.4874 41.3962 14.2634 46.3923 18.518 50.088C22.7337 53.7501 28.3931 56.1342 33.957 57.8065L34.5326 55.8911ZM13.7571 34.7113C13.877 31.7222 14.7792 30.4738 15.6159 30.0141C16.4774 29.5407 17.7022 29.661 18.9876 30.3766C20.2565 31.0829 21.3334 32.2437 21.7962 33.3851C22.0236 33.9461 22.0852 34.4566 22.002 34.8905C21.922 35.3072 21.6955 35.7277 21.2058 36.1163L22.4491 37.6829C23.2879 37.0172 23.79 36.1855 23.9662 35.2672C24.139 34.3661 23.9841 33.4585 23.6496 32.6336C22.9886 31.003 21.5603 29.5197 19.9604 28.6291C18.377 27.7477 16.3694 27.3181 14.6529 28.2612C12.9116 29.2179 11.8902 31.3521 11.7587 34.6312L13.7571 34.7113ZM21.2058 36.1163C18.5493 38.2245 14.8347 38.3618 11.3206 37.1163C7.80246 35.8693 4.74022 33.3182 3.45977 30.437L1.63213 31.2492C3.18595 34.7455 6.74709 37.6172 10.6525 39.0014C14.5619 40.3871 19.0709 40.3638 22.4491 37.6829L21.2058 36.1163ZM3.45977 30.437C2.20404 27.6114 2.17744 23.9249 2.98968 20.223C3.79885 16.5351 5.41114 12.9711 7.26311 10.4605L5.65363 9.27328C3.61937 12.031 1.89958 15.8592 1.03615 19.7944C0.175805 23.7156 0.136122 27.883 1.63213 31.2492L3.45977 30.437ZM7.26311 10.4605C8.2085 9.17892 9.65837 8.49489 11.4961 8.06395C12.412 7.84916 13.3912 7.70463 14.4143 7.57205C15.421 7.4416 16.4912 7.32047 17.5121 7.15551L17.1931 5.18112C16.2133 5.33942 15.209 5.45235 14.1573 5.58863C13.1221 5.72277 12.0593 5.87763 11.0395 6.11677C9.00566 6.59369 7.00914 7.43569 5.65363 9.27328L7.26311 10.4605Z" fill="#FBFAF9"/>
</svg>
